<?xml version="1.0" encoding="UTF-8" standalone="no"?>
<!-- Generator: Adobe Illustrator 18.0.0, SVG Export Plug-In . SVG Version: 6.00 Build 0)  -->

<svg
   version="1.1"
   id="Layer_2_1_"
   x="0px"
   y="0px"
   viewBox="0 0 699.99998 700.00001"
   enable-background="new 0 0 841.9 595.3"
   xml:space="preserve"
   sodipodi:docname="react-native-verifai.svg"
   width="700"
   height="700"
   inkscape:export-filename="/home/jeroen/Downloads/React-icon.png"
   inkscape:export-xdpi="43.885715"
   inkscape:export-ydpi="43.885715"
   inkscape:version="1.1.1 (eb90963e84, 2021-10-02)"
   xmlns:inkscape="http://www.inkscape.org/namespaces/inkscape"
   xmlns:sodipodi="http://sodipodi.sourceforge.net/DTD/sodipodi-0.dtd"
   xmlns="http://www.w3.org/2000/svg"
   xmlns:svg="http://www.w3.org/2000/svg"><defs
   id="defs171" /><sodipodi:namedview
   id="namedview169"
   pagecolor="#ff576d"
   bordercolor="#666666"
   borderopacity="1.0"
   inkscape:pageshadow="2"
   inkscape:pageopacity="1"
   inkscape:pagecheckerboard="0"
   showgrid="false"
   width="600px"
   inkscape:zoom="0.35024358"
   inkscape:cx="-159.88873"
   inkscape:cy="392.58393"
   inkscape:window-width="1853"
   inkscape:window-height="1016"
   inkscape:window-x="67"
   inkscape:window-y="27"
   inkscape:window-maximized="1"
   inkscape:current-layer="Layer_2_1_" />

<path
   d="m 217.79493,312.69431 c -13.55,13.14999 -28.5,11.09999 -42.75,4.89999 -15.15,-6.32499 -29,-6.72499 -45,0 -19.925,8.6 -30.499998,6.1 -42.499988,-4.89999 -67.75,-69.75 -57.75,-176 19.249988,-180 18.675,1 31.75,10.325 42.75,11.1 16.35,-3.325 32,-12.85 49.5,-11.6 21.025,1.7 36.75,10 47.25,24.925 -43.25,26 -33,83 6.725,99 -7.95,20.875 -18.15,41.5 -35.25,56.75 z m -69.75,-180.75 c -2.025,-31 23.1,-56.499995 52,-58.999995 3.975,35.749995 -32.5,62.499995 -52,58.999995 z"
   id="path292"
   style="stroke-width:0.25;fill:#ffffff" /><path
   d="m 585.70003,516.93808 23.31472,-40.3878 c 1.31569,-2.26416 0.52017,-5.14027 -1.71343,-6.45594 -2.23355,-1.31565 -5.14027,-0.55074 -6.42533,1.71343 l -23.62077,40.90794 c -18.02155,-8.23057 -38.3072,-12.82014 -60.12279,-12.82014 -21.81551,0 -42.10125,4.58952 -60.12282,12.82014 l -23.62077,-40.90794 c -1.31567,-2.26416 -4.19177,-3.02908 -6.45593,-1.71343 -2.26418,1.31567 -3.0291,4.19178 -1.71343,6.45594 l 23.31474,40.3878 c -40.20422,21.78499 -67.43545,62.47871 -71.93308,110.1176 h 281.06291 c -4.49775,-47.63921 -31.72899,-88.33303 -71.96371,-110.1176 z m -133.09637,70.64803 c -6.51712,0 -11.77977,-5.29326 -11.77977,-11.77978 0,-6.51714 5.29326,-11.77977 11.77977,-11.77977 6.51714,0 11.77979,5.29324 11.77979,11.77977 0.0307,6.48651 -5.26266,11.77978 -11.77979,11.77978 z m 129.02721,0 c -6.51712,0 -11.77976,-5.29326 -11.77976,-11.77978 0,-6.51714 5.29327,-11.77977 11.77976,-11.77977 6.51716,0 11.7798,5.29324 11.7798,11.77977 0.0306,6.48651 -5.26264,11.77978 -11.7798,11.77978 z"
   fill="#32de84"
   stroke-width="0.306143"
   id="path405" /><g
   id="g166"
   transform="translate(-46.980068,47.919315)">
	<path
   fill="#61dafb"
   d="m 666.3,296.5 c 0,-32.5 -40.7,-63.3 -103.1,-82.4 14.4,-63.6 8,-114.2 -20.2,-130.4 -6.5,-3.8 -14.1,-5.6 -22.4,-5.6 v 22.3 c 4.6,0 8.3,0.9 11.4,2.6 13.6,7.8 19.5,37.5 14.9,75.7 -1.1,9.4 -2.9,19.3 -5.1,29.4 -19.6,-4.8 -41,-8.5 -63.5,-10.9 -13.5,-18.5 -27.5,-35.3 -41.6,-50 32.6,-30.3 63.2,-46.9 84,-46.9 V 78 c 0,0 0,0 0,0 -27.5,0 -63.5,19.6 -99.9,53.6 C 384.4,97.8 348.4,78.4 320.9,78.4 v 22.3 c 20.7,0 51.4,16.5 84,46.6 -14,14.7 -28,31.4 -41.3,49.9 -22.6,2.4 -44,6.1 -63.6,11 -2.3,-10 -4,-19.7 -5.2,-29 -4.7,-38.2 1.1,-67.9 14.6,-75.8 3,-1.8 6.9,-2.6 11.5,-2.6 V 78.5 c 0,0 0,0 0,0 -8.4,0 -16,1.8 -22.6,5.6 -28.1,16.2 -34.4,66.7 -19.9,130.1 -62.2,19.2 -102.7,49.9 -102.7,82.3 0,32.5 40.7,63.3 103.1,82.4 -14.4,63.6 -8,114.2 20.2,130.4 6.5,3.8 14.1,5.6 22.5,5.6 27.5,0 63.5,-19.6 99.9,-53.6 36.4,33.8 72.4,53.2 99.9,53.2 8.4,0 16,-1.8 22.6,-5.6 28.1,-16.2 34.4,-66.7 19.9,-130.1 62,-19.1 102.5,-49.9 102.5,-82.3 z M 536.1,229.8 c -3.7,12.9 -8.3,26.2 -13.5,39.5 -4.1,-8 -8.4,-16 -13.1,-24 -4.6,-8 -9.5,-15.8 -14.4,-23.4 14.2,2.1 27.9,4.7 41,7.9 z m -45.8,106.5 c -7.8,13.5 -15.8,26.3 -24.1,38.2 -14.9,1.3 -30,2 -45.2,2 -15.1,0 -30.2,-0.7 -45,-1.9 -8.3,-11.9 -16.4,-24.6 -24.2,-38 -7.6,-13.1 -14.5,-26.4 -20.8,-39.8 6.2,-13.4 13.2,-26.8 20.7,-39.9 7.8,-13.5 15.8,-26.3 24.1,-38.2 14.9,-1.3 30,-2 45.2,-2 15.1,0 30.2,0.7 45,1.9 8.3,11.9 16.4,24.6 24.2,38 7.6,13.1 14.5,26.4 20.8,39.8 -6.3,13.4 -13.2,26.8 -20.7,39.9 z m 32.3,-13 c 5.4,13.4 10,26.8 13.8,39.8 -13.1,3.2 -26.9,5.9 -41.2,8 4.9,-7.7 9.8,-15.6 14.4,-23.7 4.6,-8 8.9,-16.1 13,-24.1 z M 421.2,430 c -9.3,-9.6 -18.6,-20.3 -27.8,-32 9,0.4 18.2,0.7 27.5,0.7 9.4,0 18.7,-0.2 27.8,-0.7 -9,11.7 -18.3,22.4 -27.5,32 z m -74.4,-58.9 c -14.2,-2.1 -27.9,-4.7 -41,-7.9 3.7,-12.9 8.3,-26.2 13.5,-39.5 4.1,8 8.4,16 13.1,24 4.7,8 9.5,15.8 14.4,23.4 z M 420.7,163 c 9.3,9.6 18.6,20.3 27.8,32 -9,-0.4 -18.2,-0.7 -27.5,-0.7 -9.4,0 -18.7,0.2 -27.8,0.7 9,-11.7 18.3,-22.4 27.5,-32 z m -74,58.9 c -4.9,7.7 -9.8,15.6 -14.4,23.7 -4.6,8 -8.9,16 -13,24 -5.4,-13.4 -10,-26.8 -13.8,-39.8 13.1,-3.1 26.9,-5.8 41.2,-7.9 z m -90.5,125.2 c -35.4,-15.1 -58.3,-34.9 -58.3,-50.6 0,-15.7 22.9,-35.6 58.3,-50.6 8.6,-3.7 18,-7 27.7,-10.1 5.7,19.6 13.2,40 22.5,60.9 -9.2,20.8 -16.6,41.1 -22.2,60.6 -9.9,-3.1 -19.3,-6.5 -28,-10.2 z M 310,490 c -13.6,-7.8 -19.5,-37.5 -14.9,-75.7 1.1,-9.4 2.9,-19.3 5.1,-29.4 19.6,4.8 41,8.5 63.5,10.9 13.5,18.5 27.5,35.3 41.6,50 -32.6,30.3 -63.2,46.9 -84,46.9 -4.5,-0.1 -8.3,-1 -11.3,-2.7 z m 237.2,-76.2 c 4.7,38.2 -1.1,67.9 -14.6,75.8 -3,1.8 -6.9,2.6 -11.5,2.6 -20.7,0 -51.4,-16.5 -84,-46.6 14,-14.7 28,-31.4 41.3,-49.9 22.6,-2.4 44,-6.1 63.6,-11 2.3,10.1 4.1,19.8 5.2,29.1 z m 38.5,-66.7 c -8.6,3.7 -18,7 -27.7,10.1 -5.7,-19.6 -13.2,-40 -22.5,-60.9 9.2,-20.8 16.6,-41.1 22.2,-60.6 9.9,3.1 19.3,6.5 28.1,10.2 35.4,15.1 58.3,34.9 58.3,50.6 -0.1,15.7 -23,35.6 -58.4,50.6 z"
   id="path158" />
	<polygon
   fill="#61dafb"
   points=""
   id="polygon160" />
	<circle
   fill="#61dafb"
   cx="420.89999"
   cy="296.5"
   r="45.700001"
   id="circle162" />
	<polygon
   fill="#61dafb"
   points=""
   id="polygon164" />
</g></svg>
